<svg width="100%" height="100%" viewBox="0 0 19 19" fill="current" xmlns="http://www.w3.org/2000/svg">
<path d="M18.9623 12.1217C18.3605 14.0869 17.1542 15.8121 15.5153 17.052C14.0764 18.1352 12.3641 18.7959 10.5707 18.9598C8.77721 19.1237 6.97356 18.7844 5.36218 17.98C3.7508 17.1756 2.39546 15.9379 1.44829 14.4058C0.501121 12.8737 -0.000391511 11.1079 4.46358e-05 9.3066C-0.00636167 7.20408 0.676987 5.1575 1.94528 3.48079C3.18484 1.8415 4.90973 0.635015 6.87451 0.0330101C7.004 -0.00687207 7.14191 -0.0106911 7.27341 0.0219638C7.40492 0.0546187 7.52503 0.122512 7.62084 0.218342C7.71665 0.314172 7.78453 0.434313 7.81717 0.565844C7.84982 0.697374 7.846 0.835319 7.80613 0.964842C7.3765 2.38628 7.34048 3.89768 7.7019 5.33799C8.06332 6.77829 8.80865 8.09354 9.85845 9.14358C10.9083 10.1936 12.2232 10.9391 13.6632 11.3006C15.1032 11.6621 16.6142 11.6261 18.0354 11.1964C18.1649 11.1565 18.3028 11.1527 18.4343 11.1853C18.5658 11.218 18.6859 11.2859 18.7817 11.3817C18.8775 11.4775 18.9454 11.5977 18.978 11.7292C19.0107 11.8607 19.0069 11.9987 18.967 12.1282L18.9623 12.1217Z" fill="current"/>
</svg>
